<svg width="102" height="28" viewBox="0 0 102 28" fill="none" xmlns="http://www.w3.org/2000/svg">
<path d="M0 14.0856C0 11.6786 0.548115 9.76147 1.64434 8.33435C2.75027 6.90724 4.2588 6.19368 6.16993 6.19368C7.70271 6.19368 8.96871 6.75501 9.96792 7.87768V0H14.1879V21.9205H10.3899L10.1862 20.2793C9.13848 21.5637 7.79002 22.2059 6.14082 22.2059C4.2879 22.2059 2.79878 21.4924 1.67345 20.0652C0.557816 18.6286 0 16.6354 0 14.0856ZM4.20544 14.3853C4.20544 15.8315 4.46253 16.9399 4.97669 17.7105C5.49085 18.4811 6.23783 18.8665 7.21765 18.8665C8.5176 18.8665 9.43436 18.3289 9.96792 17.2538V11.16C9.44406 10.0849 8.537 9.5474 7.24675 9.5474C5.21921 9.5474 4.20544 11.16 4.20544 14.3853Z" fill="#EEEEF2"/>
<path d="M25.8264 21.9205C25.6324 21.5494 25.4917 21.088 25.4044 20.5362C24.3858 21.6493 23.0616 22.2059 21.4318 22.2059C19.8893 22.2059 18.6087 21.7683 17.5901 20.893C16.5812 20.0177 16.0767 18.914 16.0767 17.5821C16.0767 15.9456 16.6928 14.6898 17.9248 13.8145C19.1665 12.9392 20.9564 12.4968 23.2944 12.4873H25.2298V11.6024C25.2298 10.8889 25.0406 10.318 24.6622 9.88991C24.2936 9.46177 23.7067 9.24771 22.9015 9.24771C22.1933 9.24771 21.6355 9.4142 21.228 9.7472C20.8303 10.0802 20.6314 10.5369 20.6314 11.1172H16.426C16.426 10.2229 16.7073 9.39517 17.27 8.63405C17.8326 7.87292 18.6281 7.27829 19.6565 6.85015C20.6848 6.4125 21.8392 6.19368 23.1198 6.19368C25.06 6.19368 26.5976 6.67414 27.7327 7.63507C28.8774 8.58648 29.4498 9.92797 29.4498 11.6595V18.3527C29.4595 19.8179 29.668 20.9263 30.0755 21.6779V21.9205H25.8264ZM22.3485 19.052C22.9694 19.052 23.5418 18.9188 24.0656 18.6524C24.5895 18.3765 24.9775 18.0102 25.2298 17.5535V14.8991H23.6582C21.553 14.8991 20.4325 15.6126 20.2967 17.0398L20.2822 17.2824C20.2822 17.7961 20.4665 18.2195 20.8351 18.5525C21.2038 18.8855 21.7082 19.052 22.3485 19.052Z" fill="#EEEEF2"/>
<path d="M40.4625 17.6534C40.4625 17.1492 40.2054 16.7543 39.6913 16.4689C39.1868 16.174 38.3719 15.9123 37.2466 15.684C33.5019 14.9134 31.6296 13.353 31.6296 11.0031C31.6296 9.63303 32.2068 8.49134 33.3613 7.57798C34.5254 6.65511 36.0436 6.19368 37.9159 6.19368C39.9144 6.19368 41.5102 6.65511 42.7035 7.57798C43.9064 8.50085 44.5079 9.69963 44.5079 11.1743H40.3024C40.3024 10.5844 40.1084 10.0992 39.7204 9.71865C39.3323 9.32858 38.726 9.13354 37.9014 9.13354C37.1932 9.13354 36.6451 9.29052 36.257 9.60449C35.869 9.91845 35.675 10.318 35.675 10.8033C35.675 11.2599 35.8933 11.631 36.3298 11.9164C36.7761 12.1923 37.523 12.4349 38.5708 12.6442C39.6185 12.844 40.5013 13.0724 41.2192 13.3293C43.4407 14.1284 44.5515 15.5127 44.5515 17.4822C44.5515 18.8902 43.9355 20.0319 42.7035 20.9072C41.4714 21.773 39.8804 22.2059 37.9305 22.2059C36.6111 22.2059 35.4373 21.9776 34.409 21.5209C33.3904 21.0547 32.59 20.422 32.0079 19.6228C31.4259 18.8141 31.1348 17.9436 31.1348 17.0112H35.122C35.1608 17.7438 35.4373 18.3051 35.9515 18.6952C36.4656 19.0853 37.1544 19.2803 38.0178 19.2803C38.823 19.2803 39.4293 19.1329 39.8368 18.8379C40.2539 18.5335 40.4625 18.1386 40.4625 17.6534Z" fill="#EEEEF2"/>
<path d="M50.6312 8.1631C51.7469 6.85015 53.1487 6.19368 54.8367 6.19368C58.2515 6.19368 59.9831 8.13931 60.0316 12.0306V21.9205H55.8262V12.1448C55.8262 11.2599 55.6322 10.6082 55.2441 10.1896C54.8561 9.76147 54.211 9.5474 53.3087 9.5474C52.0767 9.5474 51.1842 10.0136 50.6312 10.946V21.9205H46.4258V0H50.6312V8.1631Z" fill="#EEEEF2"/>
<path d="M61.8477 14.0856C61.8477 11.7166 62.4201 9.80904 63.5648 8.3629C64.7192 6.91675 66.2714 6.19368 68.2213 6.19368C69.9481 6.19368 71.2918 6.77404 72.2522 7.93476L72.4268 6.4791H76.2393V21.4067C76.2393 22.7577 75.924 23.9327 75.2935 24.9317C74.6726 25.9307 73.7946 26.6918 72.6596 27.2151C71.5246 27.7384 70.1955 28 68.6724 28C67.518 28 66.3927 27.7717 65.2964 27.315C64.2002 26.8678 63.3708 26.2875 62.8081 25.5739L64.6707 23.0622C65.7184 24.2134 66.9893 24.789 68.4833 24.789C69.5989 24.789 70.4672 24.4941 71.088 23.9042C71.7089 23.3238 72.0193 22.4961 72.0193 21.421V20.5933C71.0492 21.6684 69.7735 22.2059 68.1922 22.2059C66.3005 22.2059 64.7677 21.4828 63.5939 20.0367C62.4298 18.581 61.8477 16.6544 61.8477 14.2569V14.0856ZM66.0531 14.3853C66.0531 15.7839 66.3393 16.8828 66.9117 17.682C67.4841 18.4716 68.2698 18.8665 69.2691 18.8665C70.5496 18.8665 71.4664 18.3955 72.0193 17.4536V10.9602C71.4567 10.0183 70.5496 9.5474 69.2982 9.5474C68.2892 9.5474 67.4938 9.95175 66.9117 10.7604C66.3393 11.5691 66.0531 12.7774 66.0531 14.3853Z" fill="#EEEEF2"/>
<path d="M78.0845 14.0571C78.0845 12.5253 78.3852 11.16 78.9867 9.96126C79.5882 8.76249 80.4516 7.83486 81.5769 7.17839C82.7119 6.52192 84.0264 6.19368 85.5204 6.19368C87.645 6.19368 89.3766 6.83112 90.7154 8.10601C92.0638 9.3809 92.8157 11.1125 92.9709 13.3007L93 14.3568C93 16.7258 92.3258 18.6286 90.9773 20.0652C89.6289 21.4924 87.8196 22.2059 85.5495 22.2059C83.2794 22.2059 81.4653 21.4924 80.1072 20.0652C78.7587 18.6381 78.0845 16.6972 78.0845 14.2426V14.0571ZM82.2899 14.3568C82.2899 15.822 82.5713 16.9446 83.1339 17.7248C83.6966 18.4954 84.5018 18.8807 85.5495 18.8807C86.5681 18.8807 87.3636 18.5002 87.936 17.739C88.5084 16.9684 88.7946 15.7411 88.7946 14.0571C88.7946 12.6205 88.5084 11.5073 87.936 10.7176C87.3636 9.92797 86.5584 9.53313 85.5204 9.53313C84.4921 9.53313 83.6966 9.92797 83.1339 10.7176C82.5713 11.4978 82.2899 12.7108 82.2899 14.3568Z" fill="#EEEEF2"/>
<path d="M97 20.5162C97 19.7695 97.2345 19.1634 97.7034 18.6981C98.1825 18.2327 98.7788 18 99.4924 18C100.216 18 100.812 18.2327 101.281 18.6981C101.76 19.1634 102 19.7695 102 20.5162C102 21.2522 101.766 21.8528 101.297 22.3182C100.828 22.7727 100.226 23 99.4924 23C98.7686 23 98.1723 22.7727 97.7034 22.3182C97.2345 21.8528 97 21.2522 97 20.5162Z" fill="#D53F8C"/>
</svg>
